<svg width="787" height="572" viewBox="0 0 787 572" fill="none" xmlns="http://www.w3.org/2000/svg">
<path d="M669.659 185.299C667.691 191.019 655.768 188.159 651.4 187.101C651.03 186.999 650.618 187.008 650.257 187.126C649.895 187.244 649.613 187.461 649.472 187.73C649.472 188.045 648.252 191.076 646.678 195.481C646.58 195.729 646.6 195.995 646.736 196.233C646.872 196.472 647.115 196.671 647.426 196.796C652.605 198.752 658.317 199.846 664.15 200C664.503 200.015 664.839 200.117 665.103 200.288C665.367 200.459 665.544 200.69 665.605 200.943L666.432 204.175C666.461 204.322 666.529 204.464 666.634 204.592C666.74 204.719 666.879 204.83 667.044 204.918C667.209 205.006 667.396 205.069 667.595 205.104C667.794 205.138 668.001 205.143 668.203 205.119L680.008 203.889C680.22 203.863 680.422 203.805 680.601 203.718C680.78 203.631 680.932 203.518 681.047 203.386C681.162 203.254 681.237 203.106 681.269 202.951C681.3 202.796 681.286 202.638 681.227 202.488C680.834 201.372 680.244 199.628 679.732 198.055C679.657 197.846 679.67 197.626 679.768 197.422C679.866 197.218 680.045 197.04 680.283 196.911C683.406 195.121 685.643 192.641 686.658 189.847C691.498 176.519 670.918 167.91 670.918 167.91C658.247 162.534 646.599 159.616 649.078 154.383C652.03 148.119 664.818 153.181 668.753 155.069C669.092 155.216 669.494 155.265 669.881 155.207C670.267 155.149 670.609 154.987 670.839 154.754L676.82 147.69C677.021 147.436 677.084 147.137 676.996 146.851C676.909 146.566 676.678 146.314 676.348 146.146C665.212 140.626 659.585 142.313 659.152 140.426L658.168 135.678C658.11 135.379 657.891 135.109 657.559 134.927C657.227 134.744 656.81 134.665 656.398 134.706L644.868 135.993C644.662 136.016 644.465 136.07 644.289 136.152C644.113 136.234 643.963 136.342 643.848 136.468C643.733 136.595 643.656 136.738 643.622 136.887C643.587 137.037 643.596 137.19 643.648 137.337C645.065 141.541 645.655 142.285 644.238 142.8C641.336 143.859 638.84 145.424 636.972 147.356C635.105 149.287 633.924 151.524 633.535 153.868C631.096 174.603 674.105 172.658 669.659 185.299ZM184.198 222.794C182.86 229.2 167.985 228.514 162.831 228.113C162.333 228.08 161.836 228.185 161.441 228.409C161.047 228.632 160.784 228.956 160.706 229.315L159.683 238.495C159.608 238.767 159.675 239.05 159.871 239.288C160.068 239.526 160.379 239.702 160.745 239.782C167.15 240.877 173.818 240.877 180.223 239.782C180.594 239.71 180.988 239.744 181.325 239.877C181.662 240.01 181.915 240.232 182.033 240.497L183.568 244.759C183.634 244.902 183.739 245.034 183.876 245.147C184.013 245.261 184.18 245.353 184.366 245.42C184.553 245.486 184.756 245.525 184.963 245.535C185.171 245.544 185.379 245.523 185.575 245.474C189.888 243.964 194.347 242.683 198.914 241.641C199.378 241.512 199.757 241.261 199.975 240.937C200.194 240.614 200.237 240.242 200.095 239.897C199.465 238.781 198.364 236.093 197.577 234.463C197.47 234.231 197.454 233.983 197.531 233.746C197.607 233.509 197.773 233.291 198.009 233.118C201.277 230.674 203.434 227.559 204.187 224.195C207.808 208.78 183.056 203.689 183.056 203.689C167.828 200.486 154.134 199.714 156.141 193.565C158.541 186.186 173.612 189.189 178.61 190.276C179.075 190.366 179.569 190.332 180.003 190.18C180.436 190.028 180.78 189.767 180.971 189.446L186.519 180.637C186.616 180.508 186.676 180.366 186.696 180.22C186.717 180.073 186.697 179.925 186.639 179.784C186.58 179.643 186.484 179.512 186.355 179.399C186.227 179.285 186.068 179.191 185.89 179.122C179.878 177.4 173.402 176.705 166.962 177.091C166.606 177.123 166.246 177.063 165.944 176.922C165.642 176.781 165.417 176.568 165.31 176.319L163.303 171.171C163.24 171.013 163.131 170.868 162.982 170.745C162.833 170.622 162.649 170.524 162.442 170.458C162.236 170.393 162.012 170.361 161.786 170.366C161.561 170.37 161.34 170.411 161.138 170.484L148.31 173.144C147.843 173.262 147.456 173.506 147.229 173.825C147.002 174.144 146.952 174.515 147.091 174.86C149.491 180.58 150.16 181.152 148.743 181.953C145.635 183.599 143.096 185.747 141.327 188.229C139.558 190.711 138.608 193.458 138.552 196.253C138.906 219.133 187.346 208.208 184.198 222.794ZM370.48 93.6648C372.645 94.5228 368.08 97.8404 370.48 98.5268L379.885 100.5C380.058 100.539 380.241 100.551 380.421 100.535C380.6 100.519 380.774 100.476 380.929 100.409C381.085 100.341 381.22 100.251 381.324 100.144C381.429 100.036 381.502 99.9143 381.538 99.7852C382.915 95.8956 382.954 95.4952 383.978 95.3236C387.329 94.727 390.35 93.3997 392.635 91.5198C403.613 82.711 393.382 71.1566 393.382 71.1566C387.126 63.978 380.2 58.9158 384.922 55.5982C390.588 51.5942 396.963 58.4582 398.97 60.975C399.054 61.0752 399.165 61.1622 399.296 61.2309C399.428 61.2996 399.576 61.3487 399.734 61.3753C399.891 61.4019 400.054 61.4055 400.214 61.3859C400.373 61.3663 400.525 61.3238 400.662 61.261L408.925 57.4C409.076 57.3403 409.208 57.2595 409.315 57.1623C409.423 57.0652 409.502 56.9536 409.55 56.8339C409.597 56.7143 409.612 56.589 409.593 56.4653C409.573 56.3416 409.52 56.2218 409.437 56.113C407.28 53.1554 404.225 50.5931 400.505 48.6198C399.521 48.0764 399.954 47.5902 402.039 43.7578C402.107 43.6441 402.14 43.521 402.137 43.397C402.133 43.2731 402.092 43.1512 402.017 43.0397C401.943 42.9283 401.836 42.8299 401.703 42.7515C401.571 42.673 401.417 42.6163 401.252 42.5852L392.123 40.6976C391.774 40.6366 391.405 40.6771 391.096 40.8107C390.788 40.9443 390.563 41.1603 390.47 41.4126L389.093 44.9304C389.018 45.1353 388.856 45.3177 388.63 45.4513C388.404 45.5849 388.125 45.6629 387.834 45.674C385.036 45.7758 382.31 46.3542 379.877 47.3628C377.443 48.3713 375.37 49.7816 373.825 51.4798C360.407 66.409 392.989 75.6182 382.64 83.998C378.075 87.716 370.835 82.7396 368.277 80.8234C368.034 80.6522 367.71 80.5564 367.372 80.5564C367.034 80.5564 366.709 80.6522 366.467 80.8234L360.131 85.9142C359.94 86.0833 359.835 86.2957 359.835 86.5148C359.835 86.734 359.94 86.9464 360.131 87.1154C362.842 89.8478 366.384 92.0891 370.48 93.6648ZM444.065 168.282C444.092 168.511 444.229 168.725 444.452 168.888C444.675 169.05 444.97 169.149 445.285 169.169C532.721 174.631 536.459 178.035 537.915 176.805C539.371 175.575 541.417 171.085 538.623 170.685C508.695 166.037 478.239 163.414 447.646 162.848C445.206 162.848 443.868 166.395 444.065 168.282ZM354.504 145.488C351.278 145.488 366.545 147.662 442.57 159.187C471.687 160.437 500.682 162.891 529.415 166.538C529.451 166.547 529.49 166.551 529.528 166.55C529.566 166.548 529.604 166.542 529.639 166.53C529.673 166.518 529.705 166.501 529.73 166.48C529.756 166.459 529.776 166.435 529.789 166.409C529.802 166.383 529.808 166.355 529.806 166.327C529.804 166.299 529.794 166.272 529.778 166.246C529.761 166.221 529.738 166.199 529.71 166.18C529.681 166.161 529.648 166.147 529.612 166.137C486.996 151.265 405.305 143.801 354.504 145.488Z" fill="black"/>
<path d="M668.361 225.711C687.564 225.711 714.597 219.019 723.687 205.691C749.107 168.311 724.946 125.611 692.207 115.143C681.543 111.769 670.682 110.996 652.267 112.283C645.472 112.863 638.907 114.427 632.959 116.884C627.011 119.34 621.802 122.638 617.639 126.583C581.437 159.245 606.896 225.711 668.361 225.711ZM605.401 151.351C615.356 112.998 661.042 104.418 691.735 125.125C737.223 155.784 721.601 220.048 669.699 223.28C628.578 225.94 595.563 189.16 605.361 151.58L605.401 151.351Z" fill="black"/>
<path d="M646.245 211.468C651.828 213.613 658.033 214.76 664.346 214.814C688.625 214.814 712.353 195.052 707.631 165.651C701.69 127.956 653.328 109.738 626.334 133.905C601.268 156.356 611.499 198.426 646.245 211.468ZM653.486 125.125C675.168 123.637 701.178 138.824 705.467 165.88C710.425 197.34 679.654 221.735 647.544 209.58C634.362 204.604 619.212 192.077 616.064 171.8C612.916 151.522 625.665 127.012 653.486 125.125ZM365.011 110.682C368.852 111.828 372.978 112.384 377.129 112.315C381.281 112.246 385.367 111.553 389.133 110.281C429.23 97.8402 442.806 44.5012 406.643 33.5188C383.033 26.3402 358.518 43.6146 349.114 61.032C339.079 79.622 342.345 103.875 365.011 110.682ZM395.822 33.8048C418.96 33.8048 428.168 52.5092 424.744 69.9266C421.675 85.4564 409.004 100.357 392.713 107.107C376.423 113.856 360.643 110.367 352.458 100.014C333.688 76.1042 362.02 33.8048 395.822 33.8048Z" fill="black"/>
<path d="M365.956 119.748C372.97 122.173 380.585 123.545 388.346 123.78C410.461 123.78 433.126 109.938 444.262 89.4605C456.54 66.5805 450.44 42.0417 430.057 32.2605C424.235 30.1004 418.243 28.1905 412.113 26.5405C374.731 15.2149 328.573 52.7381 336.483 91.5197C339.513 106.163 350.216 116.487 365.956 119.748ZM343.92 59.4591C349.654 48.0986 360.105 38.3142 373.826 31.4597C386.536 25.4823 399.876 24.1095 411.405 27.5701C450.755 39.4391 441.862 94.2653 400.505 113.656C357.535 133.79 322.671 98.6411 343.92 59.4591ZM159.762 275.789C180.67 276.703 201.246 271.666 217.134 261.747C258.727 242.099 263.528 198.827 230.71 170.57C206.077 149.349 166.294 141.97 134.027 152.609C46.0403 172.601 71.8146 270.613 159.762 275.789ZM174.557 149.949C244.718 156.47 275.451 223.08 223.666 255.998C172.983 288.116 89.8762 256.971 91.0174 204.146C91.765 171.399 128.833 145.86 174.557 149.978V149.949Z" fill="black"/>
<path d="M141.896 252.623C149.8 255.928 158.571 257.99 167.641 258.674C176.71 259.359 185.877 258.652 194.547 256.599C232.323 247.39 249.125 213.699 227.05 185.642C204.974 157.586 156.22 151.036 125.881 170.141C90.5052 192.563 100.107 235.492 141.896 252.623ZM165.821 161.59C198.049 161.59 226.853 179.693 232.716 204.118C242.554 244.758 182.545 273.044 135.522 247.361C126.52 242.457 119.238 236.078 114.267 228.743C109.296 221.408 106.777 213.323 106.914 205.147C107.622 180.78 133.2 161.59 165.821 161.59ZM439.225 258.286C438.921 258.288 438.627 258.368 438.396 258.511C438.164 258.654 438.009 258.852 437.957 259.07C437.906 259.288 437.961 259.512 438.114 259.703C438.266 259.895 438.506 260.041 438.792 260.117C451.03 262.977 452.722 256.685 447.567 248.333C447.468 248.117 447.255 247.939 446.974 247.837C446.694 247.735 446.369 247.718 446.072 247.79C445.774 247.862 445.528 248.017 445.388 248.221C445.248 248.425 445.225 248.661 445.324 248.877C446.142 251.439 446.59 254.055 446.662 256.685C446.505 257.914 446.426 258.343 439.225 258.286ZM412.428 258.973C410.893 267.553 424.705 274.703 434.464 271.328C434.724 271.23 434.927 271.068 435.036 270.87C435.145 270.672 435.152 270.452 435.057 270.251C434.961 270.05 434.769 269.88 434.516 269.773C434.262 269.666 433.964 269.629 433.677 269.669C431.442 269.914 429.162 269.831 426.973 269.424C424.784 269.017 422.729 268.295 420.931 267.3C419.132 266.305 417.627 265.058 416.505 263.632C415.382 262.207 414.665 260.632 414.395 259.001C414.4 258.812 414.302 258.628 414.121 258.492C413.94 258.355 413.692 258.276 413.431 258.272C413.17 258.268 412.918 258.34 412.73 258.471C412.541 258.603 412.433 258.783 412.428 258.973ZM425.846 244.587C429.781 245.044 431.866 236.178 427.853 235.721C423.839 235.263 421.793 244.101 425.846 244.587ZM463.268 238.209C459.333 237.723 457.129 247.104 461.615 247.104C465.393 247.104 467.242 238.695 463.268 238.209ZM435.014 225.94C431.63 221.049 421.045 220.82 416.205 225.94C416.015 226.126 415.922 226.355 415.943 226.586C415.965 226.817 416.099 227.035 416.322 227.201C416.545 227.367 416.842 227.469 417.16 227.489C417.478 227.51 417.795 227.447 418.055 227.312C420.115 226.054 422.706 225.345 425.397 225.304C428.088 225.262 430.718 225.89 432.85 227.084C433.092 227.206 433.38 227.27 433.674 227.268C433.968 227.265 434.254 227.197 434.492 227.071C434.73 226.945 434.908 226.769 435.002 226.566C435.095 226.363 435.1 226.144 435.014 225.94ZM473.145 230.687C473.322 230.866 473.578 230.995 473.871 231.054C474.163 231.113 474.474 231.098 474.753 231.012C475.032 230.925 475.262 230.773 475.406 230.579C475.55 230.384 475.599 230.161 475.545 229.944C474.98 228.783 474.046 227.737 472.819 226.889C471.592 226.041 470.107 225.415 468.484 225.064C466.861 224.713 465.147 224.645 463.481 224.867C461.816 225.089 460.246 225.593 458.9 226.34C458.669 226.473 458.507 226.66 458.441 226.869C458.375 227.078 458.409 227.297 458.537 227.49C458.665 227.683 458.88 227.839 459.146 227.931C459.413 228.024 459.714 228.048 460.002 227.999C462.286 227.292 464.834 227.173 467.224 227.662C469.614 228.151 471.703 229.218 473.145 230.687ZM133.121 432.632C132.928 438.867 134.79 445.045 138.552 450.65C138.645 450.823 138.828 450.963 139.062 451.039C139.295 451.116 139.561 451.123 139.801 451.06C140.042 450.997 140.24 450.868 140.352 450.7C140.463 450.533 140.481 450.34 140.401 450.164C137.849 444.523 136.522 438.627 136.466 432.689C136.466 429.629 137.528 426.111 139.378 425.682C140.283 425.482 142.487 425.854 147.012 430.658C147.147 430.822 147.367 430.939 147.621 430.984C147.876 431.03 148.145 431 148.369 430.902C148.594 430.803 148.755 430.644 148.818 430.459C148.88 430.274 148.839 430.078 148.704 429.915C141.66 419.59 133.515 422.364 133.121 432.632ZM177.98 512.912C172.454 512.43 167.21 510.87 162.804 508.398C158.398 505.926 154.994 502.633 152.954 498.869C152.808 498.659 152.564 498.493 152.266 498.4C151.968 498.307 151.635 498.293 151.324 498.362C151.014 498.43 150.746 498.576 150.569 498.773C150.392 498.971 150.317 499.207 150.357 499.441C151.667 503.984 155.156 508.041 160.202 510.885C165.248 513.73 171.522 515.179 177.902 514.971C178.088 514.975 178.273 514.952 178.447 514.904C178.62 514.856 178.78 514.783 178.915 514.69C179.05 514.597 179.159 514.486 179.235 514.362C179.311 514.239 179.352 514.105 179.357 513.97C179.363 513.835 179.331 513.7 179.265 513.574C179.198 513.448 179.098 513.332 178.97 513.234C178.842 513.136 178.689 513.057 178.519 513.001C178.349 512.946 178.166 512.916 177.98 512.912ZM175.816 444.873C172.314 446.56 177.665 452.852 181.404 452.852C181.782 452.845 182.154 452.778 182.494 452.655C182.833 452.532 183.131 452.357 183.367 452.142C183.603 451.927 183.772 451.676 183.861 451.409C183.95 451.141 183.957 450.863 183.883 450.593C183.686 447.904 178.885 443.3 175.816 444.873ZM192.186 441.612C189.549 440.468 187.66 441.612 187.778 443.328C187.975 446.017 192.658 450.564 195.648 449.048C198.639 447.532 195.884 443.3 192.186 441.612ZM104.671 435.635C87.0817 433.804 73.1912 435.635 61.9764 440.754C61.5772 440.94 61.2838 441.224 61.1501 441.555C60.235 443.7 60.4024 446.012 61.6223 448.076C61.7132 448.216 61.8433 448.341 62.0042 448.442C62.1651 448.544 62.3534 448.62 62.557 448.666C62.7606 448.711 62.9751 448.726 63.1868 448.708C63.3984 448.69 63.6027 448.64 63.7865 448.562C76.0366 443.928 90.0429 442.351 103.648 444.072C103.806 444.101 103.971 444.106 104.132 444.087C104.292 444.068 104.446 444.025 104.583 443.96C104.72 443.896 104.837 443.812 104.926 443.713C105.016 443.614 105.076 443.502 105.104 443.385C105.736 441.138 105.974 438.841 105.812 436.55C105.797 436.325 105.675 436.111 105.467 435.944C105.259 435.777 104.978 435.668 104.671 435.635ZM217.37 474.76C211.27 474.76 211.821 487.458 217.763 487.344C223.705 487.229 223.311 474.76 217.37 474.76ZM233.66 477.62C232.755 474.988 229.962 474.588 227.758 476.762C224.531 479.879 224.295 486.829 228.506 486.829C232.716 486.829 234.841 480.909 233.66 477.62ZM384.41 507.163H372.605C372.134 507.176 371.685 507.314 371.344 507.552C371.003 507.789 370.794 508.109 370.756 508.45L369.89 513.97C369.856 514.4 370.049 514.822 370.429 515.152C370.809 515.482 371.349 515.693 371.936 515.743C376.462 516.087 381.025 516.087 385.551 515.743C386.119 515.7 386.641 515.495 387.002 515.174C387.363 514.853 387.535 514.44 387.48 514.027L386.693 508.736C386.629 508.321 386.364 507.935 385.947 507.647C385.529 507.359 384.985 507.188 384.41 507.163ZM392.713 508.508L392.084 513.97C392.061 514.411 392.274 514.842 392.677 515.172C393.08 515.502 393.643 515.707 394.248 515.743C398.948 516.044 403.675 516.044 408.374 515.743C408.959 515.693 409.494 515.48 409.868 515.15C410.242 514.82 410.426 514.397 410.381 513.97C409.358 510.224 410.381 507.221 407.076 507.163C403.771 507.106 398.93 507.163 394.602 507.163C394.114 507.177 393.65 507.322 393.301 507.571C392.952 507.819 392.742 508.153 392.713 508.508ZM416.048 515.743C420.642 516.058 425.266 516.058 429.86 515.743C430.43 515.7 430.955 515.496 431.323 515.176C431.69 514.855 431.871 514.443 431.827 514.027L431.04 508.736C430.964 508.304 430.675 507.907 430.226 507.617C429.778 507.328 429.2 507.167 428.6 507.163H416.402C415.926 507.176 415.472 507.313 415.125 507.549C414.778 507.786 414.56 508.106 414.513 508.45L413.923 513.913C413.896 514.135 413.93 514.358 414.022 514.57C414.114 514.783 414.264 514.98 414.461 515.15C414.659 515.32 414.9 515.46 415.173 515.562C415.445 515.664 415.742 515.725 416.048 515.743ZM437.769 515.743C442.629 516.001 447.508 516.001 452.368 515.743C452.657 515.729 452.94 515.673 453.2 515.579C453.46 515.485 453.691 515.354 453.882 515.195C454.072 515.035 454.217 514.85 454.308 514.65C454.399 514.449 454.435 514.238 454.414 514.027L453.588 508.708C453.477 508.274 453.161 507.881 452.693 507.599C452.226 507.317 451.637 507.163 451.03 507.163H438.123C437.636 507.168 437.168 507.301 436.806 507.538C436.444 507.775 436.213 508.099 436.156 508.45L435.565 513.913C435.538 514.139 435.575 514.367 435.672 514.583C435.769 514.799 435.925 514.998 436.131 515.169C436.337 515.34 436.588 515.479 436.869 515.578C437.151 515.676 437.457 515.733 437.769 515.743ZM582.38 492.377C570.575 490.575 529.218 504.218 527.88 505.276C524.654 507.764 526.149 515.314 528.864 517.517C531.579 519.719 605.99 542.971 631.174 546.803C638.139 547.175 662.654 538.938 669.147 536.736C677.017 533.876 685.477 531.588 686.894 525.954C686.894 525.954 688.35 518.918 684.651 516.973C662.418 506.792 617.166 497.64 582.38 492.377ZM581.947 494.179C608.076 497.811 659.546 508.937 681.66 518.26C675.404 521.864 638.375 534.333 632.945 534.991C612.483 527.012 554.52 512.111 530.005 506.734C531.54 505.619 570.851 492.663 581.751 494.179H581.947ZM632.827 544.057C620.707 544.057 542.637 520.605 531.815 516.43C529.572 515.572 528.628 510.71 529.258 508.136C547.752 513.169 628.38 534.476 631.961 537.222C632.879 538.221 633.424 539.377 633.541 540.575C633.659 541.774 633.345 542.974 632.63 544.057H632.827ZM683.982 525.525C682.998 529.357 678.197 531.016 668.635 534.305C658.14 538.019 647.259 541.127 636.093 543.6C636.986 541.337 636.706 538.915 635.306 536.793C644.789 534.991 677.056 524.581 683.903 519.805C684.178 521.71 684.098 523.634 683.667 525.525H683.982Z" fill="black"/>
<path d="M668.951 517.059C667.377 514.771 582.145 495.581 578.682 496.124C569.474 497.611 562.942 498.984 544.369 505.762C544.167 505.827 543.996 505.934 543.876 506.068C543.756 506.203 543.691 506.36 543.691 506.52C543.691 506.681 543.756 506.838 543.876 506.972C543.996 507.107 544.167 507.213 544.369 507.278C566.287 513.17 631.805 530.158 633.064 529.986C669.187 517.831 670.014 518.575 668.951 517.059ZM552.082 507.392C560.357 504.037 569.228 501.525 578.446 499.928C608.706 505.333 638.18 512.626 660.806 518.489C651.022 521.101 641.503 524.206 632.316 527.784C614.451 522.836 580.571 513.742 552.082 507.392Z" fill="black"/>
<path d="M685.32 466.437C685.237 465.564 684.859 464.719 684.219 463.977C685.334 463.963 686.427 463.746 687.397 463.347C688.368 462.947 689.186 462.378 689.776 461.69C690.367 461.002 690.711 460.218 690.778 459.409C690.846 458.599 690.633 457.791 690.161 457.056C725.812 433.833 770.238 394.136 767.877 389.389C766.263 386.214 766.263 393.822 626.217 377.491C596.901 330.587 561.486 284.684 481.251 282.882C480.914 282.876 480.584 282.956 480.319 283.107C480.053 283.259 479.868 283.472 479.795 283.712C474.759 299.67 458.861 336.336 420.101 331.931C391.061 328.614 370.402 304.447 362.69 281.767C370.563 282.007 378.45 281.873 386.3 281.366C386.569 281.348 386.823 281.27 387.028 281.142C387.232 281.013 387.377 280.842 387.441 280.651C390.677 270.848 391.331 260.688 389.369 250.707C389.347 250.585 389.289 250.467 389.199 250.362C389.109 250.258 388.989 250.168 388.847 250.1C388.705 250.033 388.545 249.988 388.377 249.969C388.209 249.95 388.037 249.958 387.874 249.992C377.328 251.994 374.023 240.926 377.21 235.692C377.665 234.864 378.495 234.174 379.563 233.735C380.63 233.296 381.872 233.135 383.083 233.279C384.294 233.422 385.401 233.861 386.222 234.523C387.043 235.186 387.528 236.032 387.598 236.922C387.598 240.669 399.403 231.974 397.829 223.108C399.482 223.108 401.095 223.108 402.669 222.908C404.991 222.708 402.119 216.187 411.169 210.124C410.225 212.252 410.102 214.527 410.815 216.702C411.326 217.903 418.685 218.017 422.935 217.159C424.469 216.873 423.761 213.928 430.332 204.976C441.33 206.67 452.538 207.542 463.78 207.578C468.364 210.082 472.536 212.961 476.215 216.158C493.529 231.231 472.004 276.447 447.332 286.543C437.376 290.604 427.657 289.403 417.819 285.142C416.757 284.655 415.97 284.284 415.379 284.884C415.211 285.016 415.117 285.19 415.117 285.37C415.117 285.551 415.211 285.724 415.379 285.857C430.647 295.009 448.788 293.693 463.347 279.107C465.669 279.364 474.09 279.908 475.152 278.363C476.751 275.713 477.824 272.911 478.339 270.041C481.566 276.133 478.576 280.623 481.645 280.394C485.37 280.281 488.98 279.419 492.073 277.906C492.197 277.828 492.296 277.731 492.364 277.622C492.432 277.514 492.467 277.396 492.466 277.277C492.565 273.565 492.049 269.859 490.931 266.237C496.401 271.957 496.598 274.388 497.66 274.474C499.903 274.731 507.498 270.641 507.38 269.526C506.159 265.146 503.837 260.968 500.533 257.199C498.804 254.161 498.312 250.826 499.116 247.59C502.382 252.214 504.765 257.141 506.199 262.233C506.435 263.148 506.514 263.663 507.773 263.634C510.017 263.502 512.201 263.047 514.201 262.296C516.2 261.544 517.975 260.512 519.421 259.259C519.573 259.142 519.681 259 519.736 258.845C519.791 258.69 519.791 258.527 519.736 258.372C519.038 256.136 518.049 253.952 516.784 251.851C522.884 254.111 529.534 251.851 529.613 250.45C530.124 239.553 526.543 235.034 522.018 231.602C523.238 232.089 531.423 231.831 533.351 228.571C533.68 227.42 533.68 226.232 533.351 225.082C532.806 222.692 531.579 220.412 529.75 218.387C527.92 216.363 525.527 214.639 522.726 213.327C516.115 210.009 510.449 208.465 508.521 203.174C518.398 205.462 518.162 211.754 529.613 215.586C529.745 215.654 529.903 215.69 530.065 215.69C530.227 215.69 530.385 215.654 530.518 215.586C536.105 213.441 537.089 208.208 535.751 207.664C526.543 204.032 525.245 192.935 507.065 191.076C515.525 189.532 518.87 190.533 519.145 189.017C519.449 187.691 519.311 186.332 518.742 185.053C518.174 183.774 517.192 182.613 515.879 181.667C507.425 180.369 498.672 180.506 490.302 182.067C491.286 178.778 491.955 176.347 491.955 176.347C491.955 175.661 496.204 176.147 439.344 172.515C393.383 164.392 396.295 164.678 396.059 165.422C396.059 165.565 394.681 179.894 395.35 190.762C395.823 198.112 415.379 202.488 427.657 204.49C424.431 207.791 422.34 211.606 421.557 215.615C418.584 215.457 415.598 215.457 412.625 215.615C412.84 213.335 413.287 211.069 413.963 208.837C414.278 207.664 414.396 207.292 413.963 207.035C412.586 206.234 401.174 211.239 401.332 221.335C397.003 221.335 395.468 221.02 391.927 220.849C391.321 214.974 393.547 209.13 398.223 204.318L398.498 204.032C398.581 203.959 398.643 203.874 398.681 203.784C398.719 203.693 398.732 203.598 398.719 203.504C398.706 203.409 398.668 203.318 398.606 203.234C398.545 203.151 398.461 203.077 398.361 203.017C398.26 202.957 398.144 202.912 398.019 202.884C397.894 202.857 397.763 202.847 397.634 202.857C397.504 202.866 397.378 202.894 397.263 202.938C397.148 202.983 397.046 203.044 396.964 203.117C393.864 205.677 391.592 208.708 390.312 211.989C389.032 215.27 388.777 218.717 389.566 222.079C389.611 222.279 389.742 222.464 389.94 222.608C390.137 222.751 390.392 222.846 390.668 222.879C392.242 223.051 393.855 223.137 395.468 223.194C394.94 227.464 392.818 231.548 389.33 235.006C388.791 233.976 387.869 233.075 386.667 232.403C385.465 231.731 384.03 231.316 382.522 231.202C367.805 230.087 370.363 254.368 386.969 251.937C386.969 257.943 386.969 261.747 386.379 268.411L381.145 270.584C379.036 267.008 376.241 263.666 372.842 260.66C372.757 260.592 372.654 260.538 372.539 260.501C372.424 260.464 372.299 260.445 372.173 260.445C372.047 260.445 371.923 260.464 371.808 260.501C371.692 260.538 371.589 260.592 371.504 260.66C370.035 264.901 369.648 269.302 370.363 273.644C367.315 273.649 364.3 273.191 361.509 272.3C360.046 266.037 359.768 259.657 360.683 253.338C360.71 253.158 360.661 252.977 360.541 252.818C360.422 252.659 360.239 252.53 360.016 252.449C359.793 252.368 359.541 252.339 359.295 252.365C359.048 252.391 358.819 252.471 358.637 252.595C353.031 256.303 348.496 260.785 345.297 265.779C341.894 265.196 338.892 263.745 336.837 261.69C342.661 250.965 351.436 248.534 351.79 236.922C351.807 236.758 351.756 236.594 351.644 236.451C351.533 236.308 351.365 236.192 351.162 236.118C350.96 236.045 350.732 236.017 350.507 236.038C350.283 236.058 350.072 236.127 349.901 236.236C344.63 239.287 339.647 242.593 334.987 246.131C332.489 244.441 330.794 242.218 330.147 239.782C339.749 234.806 347.107 230.258 348.17 221.335C348.17 221.135 348.17 220.563 347.697 220.363C347.225 220.162 347.147 220.363 341.559 223.223C338.16 224.74 335.151 226.675 332.666 228.943C330.08 226.985 328.665 224.363 328.731 221.65C338.883 215.529 347.934 215.129 349.901 204.49C349.931 204.362 349.913 204.23 349.848 204.109C349.783 203.987 349.674 203.881 349.533 203.802C349.391 203.723 349.222 203.673 349.044 203.658C348.867 203.643 348.687 203.664 348.524 203.717C342.297 205.747 336.558 208.49 331.525 211.84C329.883 210.246 328.705 208.427 328.062 206.492C348.445 199.542 352.065 190.047 365.484 186.729C366.585 186.472 366.546 185.871 365.877 185.556C363.91 184.698 349.311 184.212 336.286 190.39C334.531 188.311 333.642 185.907 333.728 183.469C356.709 177.148 364.5 177.92 377.682 179.436C372.386 188.56 368.94 198.193 367.451 208.036C368.474 209.638 374.455 209.38 374.455 209.38C375.068 201.62 376.944 193.94 380.043 186.5C379.24 193.396 378.925 200.316 379.099 207.235C381.453 207.296 383.808 207.133 386.103 206.749C385.631 195.709 385.631 176.319 393.501 161.018L436.786 168.168C436.915 168.185 437.049 168.181 437.176 168.156C437.303 168.13 437.42 168.084 437.519 168.02C437.617 167.957 437.695 167.878 437.745 167.79C437.795 167.701 437.817 167.605 437.809 167.51C437.566 165.754 438.075 163.986 439.265 162.448C440.013 161.504 443.436 162.448 349.39 147.518C348.906 147.453 348.407 147.519 347.987 147.704C347.566 147.888 347.253 148.178 347.107 148.519C345.297 152.867 348.406 153.582 348.406 153.582L387.166 159.988C386.305 162.972 385.107 165.899 383.585 168.74C378.154 165.565 370.088 163.963 368.71 164.964C364.775 167.824 364.421 172.143 365.562 172.715C368.455 174.052 371.216 175.533 373.826 177.148C359.188 174.974 346.753 177.148 331.721 181.61C331.466 181.696 331.249 181.833 331.095 182.005C330.942 182.177 330.859 182.377 330.856 182.582C330.795 185.966 332.322 189.265 335.184 191.934C336.916 193.536 342.779 187.873 359.306 186.843C349.822 190.361 343.566 198.541 327.826 204.633C326.252 205.262 325.543 205.548 325.583 206.12C325.64 207.618 326.133 209.091 327.028 210.442C327.923 211.792 329.2 212.99 330.777 213.956C332.626 214.528 330.777 213.556 347.107 205.977C343.172 214.728 335.814 214.013 326.134 220.277C324.874 221.078 325.229 226.769 331.603 231.116C331.861 231.3 332.207 231.402 332.567 231.402C332.928 231.402 333.274 231.3 333.531 231.116C337.021 228.187 340.985 225.575 345.336 223.337C341.047 234.348 326.606 237.38 327.157 239.267C327.247 241.101 327.963 242.89 329.241 244.472C330.519 246.055 332.318 247.382 334.476 248.333C336.837 248.991 335.735 247.418 349.39 238.895C347.737 249.392 336.994 252.395 334.122 261.489C333.571 262.605 337.742 266.923 345.927 268.325C349.193 268.84 346.792 264.75 357.732 255.769C356.931 261.485 357.13 267.25 358.322 272.929C358.912 275.332 367.648 275.789 371.976 275.446C374.574 275.189 371.976 274.245 372.763 263.52C380.948 274.645 377.249 274.474 385.946 270.756C385.631 273.616 385.277 276.476 384.805 279.336C367.018 278.564 361.903 279.708 361.745 279.164C361.588 278.621 361.352 277.677 360.289 277.648C250.109 275.217 175.344 347.518 156.771 426.197C140.874 411.84 124.504 414.7 118.051 425.11C66.8959 420.134 28.7264 437.236 20.9744 468.782C15.7409 490.061 21.7614 505.962 40.6494 520.262C38.131 541.255 44.5844 542.113 56.3894 543.714C64.9017 544.83 73.6617 544.398 81.8882 542.456C82.6384 542.339 83.3118 542.041 83.798 541.609C84.2841 541.178 84.5542 540.64 84.564 540.082C88.2236 540.082 95.7001 539.911 98.2972 537.651C99.0976 536.607 99.4279 535.407 99.2416 534.219C111.952 535.42 106.836 532.732 109.827 540.654C111.243 544.458 112.424 545.402 116.831 546.374C126.944 548.405 160.116 549.062 162.595 541.026C167.671 541.312 181.601 541.655 184.474 537.108C185.398 534.252 185.743 531.313 185.497 528.385C208.005 524.409 224.611 514.914 233.543 500.871C279.347 499.127 313.581 491.805 338.175 478.506C348.248 491.319 359.345 490.261 353.915 480.308C362.769 487.286 370.206 483.168 362.887 473.387C364.872 474.826 367.462 475.742 370.245 475.989L383.427 495.723H377.171C376.069 495.723 375.951 496.238 375.872 496.782C375.845 497.077 375.845 497.373 375.872 497.668C375.782 497.652 375.687 497.652 375.597 497.668H363.792C360.801 497.897 358.597 502.13 355.922 507.02C351.436 515.6 351.396 518.089 351.318 520.92C351.076 523.069 351.486 525.231 352.52 527.252C353.553 529.273 355.185 531.105 357.299 532.617C359.935 534.534 463.229 535.678 465.315 533.762C467.953 531.668 469.723 529.075 470.42 526.281C471.116 523.487 470.71 520.607 469.25 517.974C469.25 517.803 459.333 500.814 457.445 499.613C454.602 498.631 451.454 498.207 448.315 498.383H447.686V497.382C447.638 497.064 447.432 496.769 447.106 496.553C446.779 496.337 446.356 496.215 445.915 496.21C441.98 496.21 439.186 496.067 435.96 496.21C434.386 496.21 434.622 497.611 434.543 498.297H429.939C429.939 497.811 429.939 496.496 428.05 496.467H416.245C414.789 496.467 414.986 497.754 414.907 498.04H410.972C410.972 497.868 410.972 496.181 409.083 496.152C407.195 496.124 403.811 496.152 401.843 496.152C401.865 495.905 401.865 495.656 401.843 495.409C401.528 493.464 385.041 469.955 383.624 468.01H548.068C583.955 471.528 607.447 473.101 648.371 474.645C653.172 481.023 663.442 480.68 664.859 476.39C671.863 477.963 676.664 476.59 676.664 471.356C678.261 471.546 679.9 471.374 681.358 470.862C682.816 470.35 684.021 469.524 684.809 468.496C758.315 468.496 756.819 468.982 756.78 467.524C756.741 466.065 758.551 466.437 685.32 466.437ZM481.802 204.432C485.124 197.973 487.755 191.337 489.672 184.584C496.519 182.41 507.104 182.754 514.896 183.783C516.149 185.028 516.824 186.531 516.824 188.073C511.407 188.066 506.076 189.049 501.32 190.933C501.203 190.976 501.101 191.036 501.019 191.11C500.938 191.184 500.879 191.27 500.848 191.362C500.494 192.306 502.186 192.363 503.523 192.478C524.261 194.337 523.198 204.947 534.216 208.722C533.457 210.714 532.038 212.54 530.085 214.042C519.224 209.094 519.263 202.287 507.301 201.401C507.164 201.395 507.028 201.412 506.901 201.45C506.775 201.488 506.662 201.546 506.571 201.621C506.48 201.695 506.414 201.783 506.377 201.879C506.339 201.975 506.333 202.075 506.357 202.173C507.734 214.9 529.18 211.497 531.501 227.913C529.223 228.986 526.581 229.58 523.867 229.629C523.171 226.584 521.26 223.755 518.371 221.492C515.482 219.229 511.742 217.633 507.616 216.902C507.464 216.865 507.301 216.855 507.142 216.873C506.984 216.892 506.834 216.939 506.706 217.009C506.577 217.08 506.475 217.172 506.407 217.278C506.34 217.384 506.309 217.5 506.317 217.617C506.647 220.22 507.742 222.742 509.527 225.011C511.313 227.281 513.747 229.246 516.666 230.773C523.789 235.435 527.409 239.096 527.015 249.878C525.696 250.376 524.246 250.667 522.761 250.731C521.276 250.795 519.79 250.631 518.398 250.25C520.051 238.81 509.19 230.43 508.206 233.09C504.074 244.215 513.518 247.761 516.784 258.2C514.63 259.721 511.881 260.72 508.914 261.06C507.205 255.158 503.988 249.542 499.431 244.501C499.355 244.372 499.229 244.262 499.068 244.185C498.908 244.107 498.719 244.066 498.526 244.066C498.333 244.066 498.144 244.107 497.984 244.185C497.823 244.262 497.697 244.372 497.621 244.501C492.978 256.341 499.707 258.2 504.979 269.068C503.038 270.299 500.881 271.337 498.565 272.157C495.339 265.493 486.013 258.401 487.233 262.29C488.604 267.007 489.55 271.784 490.066 276.59C487.789 277.387 485.339 277.89 482.825 278.077C483.289 274.008 481.74 269.952 478.458 266.637C478.374 266.532 478.253 266.445 478.108 266.385C477.963 266.324 477.798 266.293 477.631 266.294C475.546 266.294 478.025 268.868 472.712 276.676C470.285 277.069 467.785 277.166 465.315 276.962C474.113 267.048 480.379 256.061 483.809 244.53C489.397 224.367 482.668 215.672 468.069 207.35C473.539 207.407 480.071 206.778 481.802 204.432ZM521.349 231.202C516.784 227.856 511.512 225.482 508.796 218.847C512.156 219.966 515.07 221.687 517.266 223.848C519.461 226.008 520.866 228.539 521.349 231.202ZM515.722 250.393C512.062 244.959 508.482 242.099 509.819 234.977C514.276 239.432 516.371 244.905 515.722 250.393ZM367.215 171.6C367.729 169.88 368.794 168.273 370.324 166.909C374.731 167.521 378.914 168.797 382.601 170.656C381.342 173.03 379.964 175.518 378.666 178.12C376.034 175.029 371.975 172.718 367.215 171.6ZM158.03 530.387C157.086 533.39 158.817 537.108 158.739 539.853C158.503 546.031 126.354 545.716 117.539 544.057C115.69 543.686 113.958 543.371 112.739 540.139C112.109 538.481 111.794 537.279 111.519 536.135C109.748 529.1 109.945 536.65 73.3493 528.013C71.8178 527.565 70.22 527.249 68.5879 527.069C68.3658 527.059 68.1459 527.106 67.9669 527.202C67.7879 527.298 67.6614 527.437 67.6096 527.594C67.5579 527.752 67.5842 527.917 67.684 528.062C67.7838 528.207 67.9506 528.321 68.1551 528.385C72.4314 529.883 76.9168 531.043 81.5341 531.845C81.0619 540.111 82.0456 540.254 80.7864 540.425C73.0128 542.162 64.774 542.496 56.7829 541.398C45.214 539.796 41.2397 538.938 43.6794 519.948C44.0729 516.916 16.5672 504.933 25.0275 469.211C32.1498 439.381 67.2894 423.28 116.792 427.169C113.253 436.128 113.988 445.694 118.877 454.311C118.955 454.493 119.13 454.645 119.363 454.733C119.595 454.822 119.866 454.839 120.117 454.783C120.367 454.726 120.576 454.599 120.698 454.43C120.82 454.261 120.844 454.064 120.766 453.882C108.646 423.594 133.791 404.261 160.824 434.405C161.014 434.608 161.29 434.76 161.61 434.838C161.93 434.915 162.276 434.914 162.595 434.834C198.679 426.254 204.306 449.649 219.023 456.227C208.084 459.745 203.637 474.359 202.85 481.967C201.552 493.922 207.1 513.627 221.541 510.224C194.351 532.217 160.077 524.095 158.03 530.387ZM203.913 422.679C198.716 425.412 194.834 429.265 192.816 433.69C187.166 431.337 180.64 430.336 174.164 430.83C199.623 411.554 220.597 416.387 206.156 442.499C203.239 439.773 199.838 437.34 196.043 435.263C197.377 430.866 200.536 426.873 205.093 423.823C205.302 423.709 205.44 423.54 205.477 423.352C205.514 423.164 205.446 422.974 205.29 422.822C205.133 422.67 204.9 422.57 204.642 422.543C204.384 422.516 204.121 422.565 203.913 422.679ZM231.458 498.583C229.754 502.031 226.653 505.022 222.564 507.163C209.854 512.397 205.29 492.549 206.431 481.995C207.297 474.045 212.648 457.714 223.47 457.714C235.786 457.8 240.862 482.453 231.536 498.583H231.458ZM355.922 465.608C355.834 465.527 355.725 465.46 355.601 465.409C355.478 465.359 355.342 465.327 355.201 465.315C355.06 465.303 354.918 465.312 354.781 465.34C354.645 465.368 354.518 465.415 354.407 465.479C354.296 465.543 354.203 465.622 354.134 465.712C354.065 465.802 354.021 465.901 354.004 466.003C353.988 466.105 353.999 466.209 354.038 466.308C354.077 466.407 354.142 466.499 354.23 466.58C357.558 469.722 360.211 473.213 362.1 476.933C362.965 478.878 363.319 481.166 362.454 481.595C361.588 482.024 358.873 480.909 356.709 479.593C351.16 476.218 348.839 472.843 347.658 473.415C347.068 473.644 347.304 474.188 347.658 474.645C349.232 476.762 354.899 485.513 351.829 485.771C348.76 486.028 342.661 479.765 340.693 477.448C339.867 476.447 339.04 475.332 337.663 476.075C307.246 492.005 266.833 496.324 234.999 498.212C241.689 485.57 240.784 467.695 232.953 459.573C231.957 458.337 230.54 457.308 228.837 456.586C227.134 455.865 225.204 455.475 223.233 455.455C217.606 454.025 212.294 448.133 207.966 444.015C215.836 430.229 215.836 421.135 207.454 417.874H207.218C194.587 413.813 179.319 422.536 169.993 431.288C167.638 431.629 165.313 432.068 163.028 432.603C161.926 431.288 160.746 430.001 159.604 428.799C163.269 416.278 167.974 403.928 173.692 391.82C194.705 390.676 275.294 407.464 297.723 417.731C297.794 417.766 297.874 417.789 297.958 417.8C298.042 417.81 298.128 417.807 298.21 417.79C298.292 417.774 298.369 417.745 298.434 417.705C298.5 417.665 298.552 417.616 298.589 417.56C318.264 386.986 317.201 363.734 301.225 334.62C298.628 329.843 304.255 330.558 306.144 333.304C335.46 376.49 309.41 426.254 291.27 446.903C271.595 435.892 257.979 428.027 233.543 425.968C233.228 425.932 232.907 425.987 232.647 426.122C232.387 426.256 232.21 426.459 232.154 426.687C232.097 426.915 232.165 427.15 232.344 427.341C232.523 427.533 232.798 427.666 233.11 427.713C273.719 434.376 288.2 453.138 323.104 465.608C323.448 465.73 323.842 465.757 324.211 465.683C324.581 465.609 324.9 465.44 325.111 465.207C334.161 454.94 346.792 449.62 360.014 450.45C358.829 450.949 357.754 451.576 356.827 452.309C354.702 453.967 355.882 454.997 357.614 457.228C357.433 457.362 357.332 457.541 357.332 457.728C357.332 457.916 357.433 458.095 357.614 458.229C373.59 466.952 379.059 484.055 355.922 465.608ZM463.111 531.96C455.635 531.96 374.652 531.617 359.384 530.759C357.61 529.196 356.282 527.392 355.478 525.453C354.674 523.513 354.41 521.476 354.702 519.462C391.923 521.754 429.324 522.098 466.613 520.491C467.22 522.473 467.22 524.527 466.615 526.508C466.01 528.49 464.814 530.351 463.111 531.96ZM401.371 504.017V503.846C404.399 503.962 407.433 503.962 410.461 503.846C412.625 503.674 411.602 501.615 411.405 500.042H414.829C414.829 501.701 413.648 503.932 416.009 504.132C420.43 504.475 424.889 504.475 429.309 504.132C431.631 503.96 430.332 501.672 430.254 500.071H434.464C434.464 501.415 433.284 503.674 435.684 503.903C439.501 504.232 443.358 504.232 447.174 503.903C448.315 503.903 448.552 503.188 448.512 502.473C448.512 502.473 448.512 501.472 448.276 500.5C450.797 500.404 453.322 500.607 455.753 501.1C456.382 501.758 464.292 515.229 466.062 518.832C439.383 518.832 376.423 518.117 354.977 517.803C355.922 514.428 362.336 500.214 364.146 499.67H375.361C375.438 499.686 375.519 499.686 375.597 499.67C375.597 500.671 375.597 501.586 375.361 501.729C375.361 502.673 375.361 503.445 376.895 503.56C382.739 503.836 388.601 503.836 394.445 503.56C396.531 504.275 397.436 504.532 397.751 504.618C399.443 505.276 400.663 505.018 401.371 504.017ZM398.656 494.322C399.335 497.161 399.335 500.063 398.656 502.902C396.373 502.244 389.566 499.584 389.133 499.441C388.7 499.298 387.284 497.01 372.685 475.417C373.138 475.115 373.502 474.749 373.752 474.341C374.003 473.932 374.135 473.491 374.141 473.044C374.416 469.64 369.97 463.463 360.958 458.143C358.204 453.939 355.725 453.538 363.319 451.336C367.923 449.992 367.884 450.907 368.789 452.108C376.541 462.147 387.008 475.961 398.577 494.322H398.656ZM378.272 460.46L372.488 452.738C383.152 454.825 389.527 457.771 390.314 459.687C391.101 461.604 381.696 460.66 378.272 460.46ZM647.544 472.5C565.46 468.153 485.737 459.516 458.35 455.826C499.903 429.715 559.4 395.938 588.205 374.517C649.748 384.784 712.393 390.59 764.768 390.847C759.456 400.8 708.301 440.44 687.918 455.569C682.094 453.453 670.171 455.969 671.43 460.488C665.055 460.317 662.891 461.918 662.143 462.919C661.785 463.398 661.597 463.933 661.597 464.478C661.597 465.023 661.785 465.558 662.143 466.037C658.444 466.037 654.982 466.895 654.903 469.526C649.945 468.296 647.269 470.069 647.544 472.357V472.5ZM650.692 473.358C648.961 470.899 651.991 470.67 655.651 471.757C657.299 473.578 659.715 474.963 662.537 475.703C661.553 478.878 653.211 476.99 650.692 473.215V473.358ZM672.61 474.102C669.305 476.047 656.87 472.329 657.775 469.469C657.972 468.582 659.861 467.781 664.465 468.124C667.282 469.594 670.527 470.573 673.948 470.984C674.028 471.521 673.95 472.063 673.72 472.576C673.489 473.089 673.111 473.56 672.61 473.959V474.102ZM682.369 467.295C681.74 468.782 679.733 469.297 676.073 468.897C664.268 467.581 659.349 462.176 673.319 462.776C675.633 463.907 678.409 464.432 681.189 464.263C681.736 464.617 682.136 465.075 682.345 465.586C682.553 466.096 682.562 466.638 682.369 467.152V467.295ZM675.05 461.003C671.115 458.143 685.163 455.741 687.445 458.143C687.693 458.482 687.823 458.86 687.823 459.244C687.823 459.628 687.693 460.006 687.445 460.345C685.832 462.662 677.254 462.49 675.05 460.86V461.003Z" fill="black"/>
</svg>
