<?xml version="1.0" standalone="no"?>
<!DOCTYPE svg PUBLIC "-//W3C//DTD SVG 20010904//EN"
 "http://www.w3.org/TR/2001/REC-SVG-20010904/DTD/svg10.dtd">
<svg version="1.0" xmlns="http://www.w3.org/2000/svg"
 width="300.000000pt" height="125.000000pt" viewBox="0 0 300.000000 125.000000"
 preserveAspectRatio="xMidYMid meet">
<metadata>
Created by potrace 1.10, written by Peter Selinger 2001-2011
</metadata>
<g transform="translate(0.000000,125.000000) scale(0.100000,-0.100000)"
fill="#000000" stroke="none">
<path d="M2650 1169 c-30 -11 -66 -21 -80 -21 -14 0 -19 -3 -11 -5 7 -3 -9
-13 -35 -23 -27 -10 -105 -45 -174 -78 -140 -67 -322 -147 -330 -146 -53 11
-70 12 -65 4 3 -6 18 -10 33 -10 24 0 23 -2 -14 -19 -40 -18 -88 -18 -100 0
-9 15 -24 10 -18 -6 4 -8 18 -15 32 -15 37 0 19 -13 -63 -45 -38 -15 -124 -51
-190 -80 -303 -132 -323 -139 -350 -127 -32 15 -35 15 -35 2 0 -5 9 -10 20
-10 32 0 23 -16 -20 -35 -45 -20 -61 -14 -41 16 12 20 11 21 -16 15 -15 -3
-84 -10 -152 -15 -102 -8 -130 -8 -165 5 -22 8 -47 16 -54 18 -8 1 -17 8 -21
15 -5 7 -12 12 -17 12 -5 -1 -9 5 -9 12 0 6 -6 12 -13 12 -8 0 -20 9 -28 20
-8 11 -18 20 -22 20 -4 0 -6 4 -4 8 1 5 -2 6 -7 2 -6 -3 -18 6 -27 20 -9 14
-20 25 -25 25 -4 0 -26 17 -47 37 -21 21 -48 45 -59 53 -19 14 -72 60 -175
152 l-41 37 -51 -21 c-28 -11 -59 -23 -69 -26 -10 -2 -16 -7 -14 -11 1 -3 65
-131 140 -283 75 -153 139 -278 143 -278 15 0 -14 67 -127 298 -90 185 -117
247 -107 254 29 18 54 4 36 -21 -9 -12 -7 -11 7 1 15 14 16 20 7 30 -17 17
-15 28 6 28 22 0 115 -70 222 -168 134 -122 206 -182 218 -182 7 0 12 -7 12
-15 0 -8 7 -15 15 -15 9 0 18 -7 21 -15 4 -8 9 -13 13 -11 3 3 29 -7 56 -20
56 -28 111 -31 220 -14 37 6 70 9 72 6 6 -6 -370 -189 -465 -226 -107 -42
-130 -45 -154 -23 -21 18 -21 18 -9 -4 8 -16 21 -23 44 -24 32 0 32 0 7 -11
-14 -6 -53 -24 -87 -41 l-62 -30 15 -29 c30 -57 48 -68 116 -67 35 1 77 4 93
8 l30 7 -30 15 c-71 38 -115 64 -115 69 0 11 160 50 207 50 l50 0 7 -38 c3
-20 6 -57 6 -82 1 -41 2 -43 15 -26 10 13 39 22 107 32 223 33 449 104 637
198 58 30 76 35 82 24 7 -10 9 -9 9 5 0 12 8 17 28 17 15 0 59 9 97 20 70 20
125 26 125 13 0 -4 -10 -17 -22 -30 -29 -31 -6 -31 58 2 64 33 74 32 39 -5
-35 -37 -25 -38 50 -5 32 14 60 23 63 20 3 -3 -5 -16 -18 -30 -13 -14 -19 -25
-14 -25 15 0 114 55 114 63 0 5 -17 8 -37 6 -21 -1 -55 1 -75 6 l-37 7 15 29
c17 35 72 73 142 99 l51 20 63 -30 c35 -17 69 -30 77 -30 11 0 9 -4 -5 -16
-18 -15 -18 -15 2 -5 37 18 94 2 115 -33 10 -17 19 -39 19 -49 0 -16 2 -16 38
-1 20 9 54 21 75 26 47 13 43 32 -9 36 -22 2 -49 12 -62 24 -21 20 -21 23 -6
46 23 36 10 95 -29 128 -26 22 -38 25 -75 21 -24 -2 -71 -19 -104 -36 -47 -25
-63 -29 -74 -20 -8 6 -14 15 -14 18 0 4 29 22 65 40 40 19 63 36 59 43 -4 7
-2 8 5 4 16 -10 53 3 45 16 -4 6 -2 8 4 5 15 -10 43 3 35 16 -3 5 -1 7 5 4 12
-8 44 2 37 12 -2 4 6 7 18 7 12 -1 21 4 20 10 -1 7 5 10 15 8 21 -5 198 90
195 105 -2 6 3 8 10 6 31 -12 167 141 167 188 0 18 -29 37 -56 37 -10 0 -25 7
-35 16 -29 26 -116 28 -179 3z m149 -15 c28 -6 29 -8 15 -19 -10 -6 -14 -17
-10 -23 10 -17 46 -15 52 2 6 15 44 10 44 -6 0 -5 -5 -6 -12 -2 -6 4 -8 3 -4
-4 14 -22 -15 -61 -68 -93 -31 -19 -56 -37 -56 -42 0 -4 -4 -5 -10 -2 -13 8
-52 -13 -45 -25 3 -4 -3 -6 -12 -4 -10 3 -27 -2 -38 -11 -20 -16 -20 -16 2 -6
33 17 42 12 10 -5 -15 -8 -32 -12 -37 -9 -5 3 -26 -3 -47 -14 -21 -11 -33 -21
-28 -21 12 -1 -56 -39 -70 -39 -5 -1 -3 4 5 9 8 5 11 10 5 9 -15 0 -102 -48
-90 -49 12 -1 -56 -39 -70 -39 -5 0 1 6 15 14 35 20 18 19 -24 -2 -19 -9 -32
-21 -29 -26 4 -6 -1 -8 -11 -4 -9 4 -15 3 -12 -2 6 -10 -24 -25 -32 -16 -3 3
1 5 8 5 7 0 11 2 8 5 -9 10 -38 -7 -31 -18 3 -5 1 -7 -5 -3 -12 7 -96 -28
-447 -194 -334 -157 -507 -231 -653 -279 -168 -55 -182 -58 -182 -31 0 12 -5
18 -10 15 -7 -4 -7 -12 0 -24 8 -16 4 -19 -28 -25 -20 -3 -48 -9 -60 -12 -24
-7 -24 -6 -19 60 2 36 0 66 -4 66 -5 0 -9 7 -9 15 0 8 -4 15 -9 15 -5 0 -8 -8
-7 -17 1 -13 -13 -19 -59 -28 -78 -15 -235 -67 -235 -77 0 -5 27 -22 60 -37
60 -28 60 -29 29 -35 -63 -12 -90 -7 -112 21 -12 15 -22 32 -23 39 -1 7 26 25
60 40 33 15 112 51 174 81 63 29 115 53 117 53 3 0 86 41 187 90 147 73 188
89 213 85 23 -5 81 16 260 90 228 96 340 144 444 191 30 14 111 49 180 79 151
64 214 92 301 134 36 18 101 46 145 63 44 16 94 36 110 43 55 24 100 30 154
19z m-504 -451 c-16 -10 -33 -16 -37 -15 -5 1 -8 -2 -8 -6 0 -5 -15 -7 -32 -6
-18 2 -25 1 -16 -2 23 -7 51 -52 44 -71 -4 -9 -13 -13 -22 -9 -8 3 -13 2 -10
-3 3 -5 -9 -11 -27 -15 -35 -7 -98 -36 -108 -50 -4 -4 -23 -3 -43 4 -21 7 -40
10 -42 7 -3 -3 8 -8 25 -12 37 -8 38 -12 10 -36 -11 -9 -20 -20 -20 -23 5 -41
1 -44 -41 -39 -53 7 -81 20 -72 35 5 8 0 9 -17 4 -13 -5 -37 -9 -54 -11 -16
-2 -52 -15 -79 -29 -27 -14 -58 -26 -68 -26 -10 0 -45 -14 -78 -30 -33 -17
-60 -28 -60 -26 0 9 249 156 360 212 137 70 135 70 126 55 -5 -7 -1 -9 8 -5 9
3 13 10 10 15 -3 5 0 10 5 10 21 3 26 4 40 13 9 6 12 5 8 0 -3 -5 3 -10 13
-10 14 0 16 4 9 12 -7 9 -5 12 8 10 10 -2 29 4 42 13 22 14 120 47 146 49 6 1
-3 -6 -20 -15z m215 -83 c38 -34 32 -51 -26 -72 -19 -6 -34 -17 -34 -24 0 -21
-23 -22 -80 -1 -70 25 -88 40 -71 61 7 8 21 18 32 21 10 4 19 11 19 17 0 6
-15 -1 -34 -16 -34 -26 -56 -33 -56 -18 0 12 80 51 95 46 8 -3 22 -1 32 5 36
21 87 13 123 -19z m15 -126 c30 -37 35 -48 24 -55 -24 -15 -49 -10 -49 9 0 11
-9 27 -20 37 -23 21 -26 41 -7 48 6 3 13 6 13 6 1 1 19 -20 39 -45z m-1040
-130 c-136 -67 -314 -140 -331 -134 -4 1 -10 -3 -13 -8 -5 -8 -158 -53 -178
-52 -5 1 64 25 152 54 160 54 299 111 430 179 39 20 75 36 80 36 6 0 -57 -34
-140 -75z"/>
<path d="M1984 711 c-12 -13 -20 -17 -25 -10 -4 6 -9 7 -12 2 -3 -5 -1 -15 4
-23 8 -13 11 -13 23 2 7 10 16 15 19 11 4 -3 9 2 13 11 10 26 -3 30 -22 7z"/>
<path d="M1048 394 c-33 -17 -32 -12 -12 -60 10 -22 20 -52 24 -69 6 -24 8
-25 9 -8 1 15 9 25 26 29 14 3 25 11 25 16 0 6 -8 7 -17 3 -10 -4 -23 -9 -29
-12 -7 -2 -16 8 -22 24 -5 15 -13 35 -17 44 -5 12 2 19 26 28 18 6 33 11 35
11 7 0 35 -61 44 -97 l9 -38 -3 35 c-3 46 -36 110 -55 110 -9 -1 -28 -8 -43
-16z"/>
<path d="M436 1112 c-4 -7 69 -95 139 -167 34 -35 582 -265 631 -265 30 0 4
14 -96 52 -52 20 -165 63 -250 96 -85 33 -162 62 -170 65 -39 14 32 5 105 -14
44 -11 91 -22 105 -24 14 -2 75 -15 135 -29 61 -14 129 -28 152 -30 23 -3 61
-10 85 -15 24 -5 83 -15 133 -21 l90 -13 -42 -20 -42 -20 -112 26 c-62 15
-114 25 -116 23 -2 -2 46 -16 107 -31 72 -18 107 -31 98 -36 -14 -9 -125 -25
-145 -21 -14 3 -76 -39 -69 -46 3 -2 25 6 51 17 31 14 52 18 63 12 12 -6 46 4
116 35 55 24 116 49 135 56 35 11 31 12 -89 29 -201 29 -381 74 -595 149 -60
21 -127 41 -147 43 -24 4 -73 31 -144 81 -108 77 -119 83 -128 68z m177 -132
c24 -29 21 -33 -13 -15 -31 16 -40 35 -17 35 7 0 20 -9 30 -20z"/>
<path d="M2205 479 c92 -21 121 -23 130 -9 4 7 -2 9 -17 5 -14 -4 -55 1 -92 9
-37 9 -75 16 -84 15 -9 0 19 -9 63 -20z"/>
<path d="M43 413 c-32 -12 -6 -31 79 -57 50 -16 103 -35 117 -43 14 -7 33 -13
42 -13 8 0 43 -11 77 -25 34 -14 69 -25 77 -25 25 0 7 18 -28 29 -18 5 -70 24
-117 41 -47 17 -95 34 -107 37 -13 3 -23 9 -23 13 0 4 73 -7 162 -26 89 -19
163 -32 165 -30 4 4 -90 26 -222 51 -116 23 -136 40 -36 31 115 -10 257 -17
246 -12 -10 5 -378 37 -405 35 -8 0 -21 -3 -27 -6z"/>
<path d="M2371 381 c37 -21 83 -22 102 -2 9 9 3 12 -28 10 -22 -1 -56 1 -75 5
l-35 7 36 -20z"/>
<path d="M714 85 c21 -16 36 -18 60 -9 16 6 12 24 -5 24 -6 0 -7 -5 -3 -12 5
-7 3 -8 -7 -2 -8 5 -25 10 -39 11 -24 3 -24 3 -6 -12z"/>
</g>
</svg>
